<?xml version="1.0" encoding="UTF-8" standalone="no"?>
<!-- Created with Inkscape (http://www.inkscape.org/) -->

<svg
   xmlns:dc="http://purl.org/dc/elements/1.1/"
   xmlns:cc="http://creativecommons.org/ns#"
   xmlns:rdf="http://www.w3.org/1999/02/22-rdf-syntax-ns#"
   xmlns:svg="http://www.w3.org/2000/svg"
   xmlns="http://www.w3.org/2000/svg"
   xmlns:sodipodi="http://sodipodi.sourceforge.net/DTD/sodipodi-0.dtd"
   xmlns:inkscape="http://www.inkscape.org/namespaces/inkscape"
   width="118.72511mm"
   height="86.829468mm"
   viewBox="0 0 118.72511 86.829459"
   version="1.1"
   id="svg8"
   inkscape:version="0.92.4 (5da689c313, 2019-01-14)"
   sodipodi:docname="personal_information.svg">
  <defs
     id="defs2" />
  <sodipodi:namedview
     id="base"
     pagecolor="#ffffff"
     bordercolor="#666666"
     borderopacity="1.0"
     inkscape:pageopacity="0.0"
     inkscape:pageshadow="2"
     inkscape:zoom="0.7"
     inkscape:cx="223.99434"
     inkscape:cy="149.08484"
     inkscape:document-units="mm"
     inkscape:current-layer="g1277"
     showgrid="false"
     inkscape:window-width="1366"
     inkscape:window-height="721"
     inkscape:window-x="-4"
     inkscape:window-y="-4"
     inkscape:window-maximized="1"
     fit-margin-top="0"
     fit-margin-left="0"
     fit-margin-right="0"
     fit-margin-bottom="0" />
  <metadata
     id="metadata5">
    <rdf:RDF>
      <cc:Work
         rdf:about="">
        <dc:format>image/svg+xml</dc:format>
        <dc:type
           rdf:resource="http://purl.org/dc/dcmitype/StillImage" />
        <dc:title></dc:title>
      </cc:Work>
    </rdf:RDF>
  </metadata>
  <g
     inkscape:label="Layer 1"
     inkscape:groupmode="layer"
     id="layer1"
     transform="translate(-60.068964,-81.242386)">
    <g
       id="g1277"
       transform="matrix(0.12149313,0,0,0.12149313,58.835975,79.509453)"
       style="fill:#787878;fill-opacity:1">
      <path
         id="path1275"
         d="m 255.49544,343.99252 c 46.45939,-0.35876 82.51474,-37.49039 82.15598,-85.02605 0,-46.28001 -36.05535,-82.15598 -82.15598,-82.15598 -47.1769,-0.35876 -83.7704,36.59349 -83.41164,83.7704 0,46.81814 37.31102,83.94977 83.41164,83.41163 z m 368.62562,0.17938 h 84.12916 c 27.26574,0 54.53148,0.35876 81.9766,0 22.96062,-0.35876 37.49039,-11.83907 37.31101,-29.41829 -0.53814,-22.96063 -17.93799,-28.5214 -35.33784,-28.88016 -56.86341,-0.8969 -113.90621,-0.8969 -170.59025,0 -22.06372,0.35876 -36.05535,14.35039 -33.90279,30.49457 2.6907,20.44931 16.86171,27.80388 36.41411,27.80388 z m 362.70609,265.66158 c -0.35876,70.49629 -46.28001,118.57009 -115.34126,118.57009 -249.15863,0.53814 -498.31726,0.8969 -747.47589,0 C 54.76937,728.04481 11.000683,683.37923 10.821303,613.60046 9.9244042,452.8761 9.9244042,291.79298 10.821303,131.06862 11.180063,52.859 49.208594,15.009848 126.88007,14.651089 c 123.77211,-0.53814 247.54422,-0.35876 371.31633,-0.35876 h 353.73709 c 13.27411,0 26.7276,0 40.00171,1.793798 63.67985,8.430854 94.89195,43.409928 94.89195,108.524823 0.71752,162.1594 0.71752,323.60127 0,485.22253 z M 324.73607,401.57346 c -46.28001,-3.76698 -93.09815,-3.76698 -139.55754,-0.35876 -31.92962,2.15256 -56.50466,24.57504 -62.06543,56.50466 -6.2783,34.79969 -4.30512,70.67566 -5.91954,106.37226 h 273.37492 c 0,-31.92962 1.61442,-61.16854 -0.35876,-90.22807 -2.15256,-36.23474 -29.77706,-69.42001 -65.47365,-72.29009 z m 467.28454,-7.71333 c -86.81985,-0.8969 -173.46032,-0.8969 -260.28018,0 -25.11318,0.35876 -36.05535,12.73597 -34.97907,33.90279 0.8969,19.19365 12.01845,28.16264 37.49039,28.16264 42.15427,0.35876 84.30854,0 126.82156,0 43.05117,0 85.92296,0.35876 129.15351,0 24.75442,-0.35876 36.59349,-9.68651 37.49039,-28.88016 0.53814,-20.4493 -10.22465,-32.82651 -35.6966,-33.18527 z m 0.35876,114.80311 C 704.842,508.1251 617.66339,508.30448 530.12601,509.022 c -8.07209,0 -19.5524,3.76698 -23.31938,9.68651 -5.56078,8.43085 -10.94217,23.49876 -6.81643,30.13582 5.91953,9.68651 19.5524,19.5524 30.49457,20.09054 43.40993,2.15256 87.17862,0.8969 130.9473,0.8969 v 0.35876 c 42.87179,0 85.92296,0.35876 128.79475,0 24.75442,-0.35876 36.95225,-10.22465 37.31101,-29.23892 0.17938,-19.01426 -12.55659,-32.28837 -35.15846,-32.28837 z"
         inkscape:connector-curvature="0"
         style="fill:#787878;fill-opacity:1;stroke-width:1.79379869"
         sodipodi:nodetypes="cccccsscccccsccccccssccccccccccccccsccccccccccccc" />
    </g>
  </g>
</svg>
