<?xml version="1.0" encoding="UTF-8" standalone="no"?>
<!-- Created with Inkscape (http://www.inkscape.org/) -->

<svg
   width="89.936592mm"
   height="98.381813mm"
   viewBox="0 0 89.936593 98.381816"
   version="1.1"
   id="svg5"
   inkscape:version="1.1.2 (b8e25be833, 2022-02-05)"
   sodipodi:docname="user1.svg"
   xmlns:inkscape="http://www.inkscape.org/namespaces/inkscape"
   xmlns:sodipodi="http://sodipodi.sourceforge.net/DTD/sodipodi-0.dtd"
   xmlns="http://www.w3.org/2000/svg"
   xmlns:svg="http://www.w3.org/2000/svg">
  <sodipodi:namedview
     id="namedview7"
     pagecolor="#ffffff"
     bordercolor="#999999"
     borderopacity="1"
     inkscape:pageshadow="0"
     inkscape:pageopacity="0"
     inkscape:pagecheckerboard="0"
     inkscape:document-units="mm"
     showgrid="true"
     inkscape:zoom="0.27393729"
     inkscape:cx="147.84406"
     inkscape:cy="321.24141"
     inkscape:window-width="1366"
     inkscape:window-height="705"
     inkscape:window-x="-8"
     inkscape:window-y="-8"
     inkscape:window-maximized="1"
     inkscape:current-layer="layer1">
    <inkscape:grid
       type="xygrid"
       id="grid1046"
       originx="-0.61813703"
       originy="-11.123306" />
  </sodipodi:namedview>
  <defs
     id="defs2" />
  <g
     inkscape:label="Layer 1"
     inkscape:groupmode="layer"
     id="layer1"
     transform="translate(-55.927666,-58.68583)">
    <path
       d="m 669.14286,111.06252 c 8.81667,-4.95434 14.7922,-14.357473 14.7922,-25.145764 0.0101,-15.914497 -12.99246,-28.856404 -28.95752,-28.856404 -15.97517,0 -28.96763,12.941907 -28.96763,28.866516 0,10.373743 5.54076,19.463432 13.80134,24.549222 -18.68489,5.86431 -32.284,23.29543 -32.284,43.8306 0,0.61676 0.0708,1.22341 0.091,1.84018 h 6.44062 c -0.0303,-0.61677 -0.091,-1.22342 -0.091,-1.84018 0,-21.78892 17.80523,-39.52336 39.69526,-39.52336 21.89001,0 39.69525,17.72434 39.69525,39.52336 0,0.61676 -0.0607,1.22341 -0.091,1.84018 h 6.44062 c 0.0202,-0.61677 0.0909,-1.22342 0.0909,-1.84018 0,-19.92851 -12.82058,-36.88443 -30.65614,-43.24417 z M 632.44042,85.926868 c 0,-12.365585 10.11087,-22.425894 22.52701,-22.425894 12.42625,0 22.527,10.060309 22.527,22.425894 0,12.365586 -10.10075,22.425942 -22.527,22.425942 -12.41614,-0.0101 -22.52701,-10.060356 -22.52701,-22.425942 z"
       id="path1034"
       style="fill:#787878;fill-opacity:1;stroke-width:0.101108" />
    <path
       d="m 145.86426,140.4785 q 0,7.6861 -4.66291,12.13761 -4.66291,4.45153 -12.39185,4.45153 H 72.982404 q -7.728929,0 -12.391835,-4.45153 -4.662903,-4.45151 -4.662903,-12.13761 0,-3.39467 0.223563,-6.62923 0.223564,-3.23454 0.894253,-6.98152 0.670695,-3.74696 1.692701,-6.94949 1.022009,-3.20254 2.746645,-6.24495 1.724635,-3.04239 3.960272,-5.1881 2.235644,-2.14571 5.461352,-3.4267 3.225709,-1.28102 7.122109,-1.28102 0.574878,0 2.682767,1.37708 2.107888,1.3771 4.758717,3.07444 2.65083,1.69733 6.898545,3.07443 4.247715,1.37709 8.52736,1.37709 4.27966,0 8.52737,-1.37709 4.24772,-1.3771 6.89855,-3.07443 2.65082,-1.69734 4.75872,-3.07444 2.10788,-1.37708 2.68276,-1.37708 3.8964,0 7.1221,1.28102 3.22571,1.28099 5.46135,3.4267 2.23564,2.14571 3.9603,5.1881 1.72462,3.04241 2.74662,6.24495 1.02201,3.20253 1.6927,6.94949 0.67068,3.74698 0.89425,6.98152 0.22359,3.23456 0.22359,6.62923 z M 125.42411,83.281275 q 0,10.184056 -7.18598,17.389755 -7.18597,7.20571 -17.34218,7.20571 -10.156184,0 -17.342166,-7.20571 -7.185985,-7.205699 -7.185985,-17.389755 0,-10.184053 7.185985,-17.389746 7.185982,-7.205699 17.342166,-7.205699 10.15621,0 17.34218,7.205699 7.18598,7.205693 7.18598,17.389746 z"
       id="path1306"
       style="stroke-width:0.0639628;fill:#787878;fill-opacity:1" />
  </g>
</svg>
