<?xml version="1.0" encoding="UTF-8" standalone="no"?>
<!-- Created with Inkscape (http://www.inkscape.org/) -->

<svg
   xmlns:dc="http://purl.org/dc/elements/1.1/"
   xmlns:cc="http://creativecommons.org/ns#"
   xmlns:rdf="http://www.w3.org/1999/02/22-rdf-syntax-ns#"
   xmlns:svg="http://www.w3.org/2000/svg"
   xmlns="http://www.w3.org/2000/svg"
   xmlns:sodipodi="http://sodipodi.sourceforge.net/DTD/sodipodi-0.dtd"
   xmlns:inkscape="http://www.inkscape.org/namespaces/inkscape"
   width="120.34762mm"
   height="120.3475mm"
   viewBox="0 0 120.34762 120.34749"
   version="1.1"
   id="svg8"
   inkscape:version="0.92.4 (5da689c313, 2019-01-14)"
   sodipodi:docname="wallet.svg">
  <defs
     id="defs2" />
  <sodipodi:namedview
     id="base"
     pagecolor="#ffffff"
     bordercolor="#666666"
     borderopacity="1.0"
     inkscape:pageopacity="0.0"
     inkscape:pageshadow="2"
     inkscape:zoom="0.35"
     inkscape:cx="-66.873438"
     inkscape:cy="414.13052"
     inkscape:document-units="mm"
     inkscape:current-layer="layer1"
     showgrid="false"
     inkscape:window-width="1366"
     inkscape:window-height="721"
     inkscape:window-x="-4"
     inkscape:window-y="-4"
     inkscape:window-maximized="1"
     fit-margin-top="0"
     fit-margin-left="0"
     fit-margin-right="0"
     fit-margin-bottom="0" />
  <metadata
     id="metadata5">
    <rdf:RDF>
      <cc:Work
         rdf:about="">
        <dc:format>image/svg+xml</dc:format>
        <dc:type
           rdf:resource="http://purl.org/dc/dcmitype/StillImage" />
        <dc:title></dc:title>
      </cc:Work>
    </rdf:RDF>
  </metadata>
  <g
     inkscape:label="Layer 1"
     inkscape:groupmode="layer"
     id="layer1"
     transform="translate(-61.184829,-80.05224)">
    <g
       id="g1004"
       transform="matrix(0.23505394,0,0,0.23505394,61.184829,80.052122)"
       style="fill:#787878;fill-opacity:1">
      <g
         id="g902"
         style="fill:#787878;fill-opacity:1">
	<g
   id="g900"
   style="fill:#787878;fill-opacity:1">
		<path
   id="path898"
   d="m 361.739,278.261 c -27.664,0 -50.087,22.423 -50.087,50.087 0,27.664 22.423,50.087 50.087,50.087 H 512 V 278.261 Z m 0,66.782 c -9.22,0 -16.696,-7.475 -16.696,-16.696 0,-9.221 7.475,-16.696 16.696,-16.696 9.221,0 16.696,7.475 16.696,16.696 0,9.221 -7.475,16.696 -16.696,16.696 z"
   inkscape:connector-curvature="0"
   style="fill:#787878;fill-opacity:1" />

	</g>

</g>
      <g
         id="g908"
         style="fill:#787878;fill-opacity:1">
	<g
   id="g906"
   style="fill:#787878;fill-opacity:1">
		<path
   id="path904"
   d="m 361.739,244.87 h 83.478 v -50.087 c 0,-27.619 -22.468,-50.087 -50.087,-50.087 H 16.696 C 7.479,144.696 0,152.174 0,161.391 V 495.304 C 0,504.521 7.479,512 16.696,512 H 395.13 c 27.619,0 50.087,-22.468 50.087,-50.087 v -50.087 h -83.478 c -46.032,0 -83.478,-37.446 -83.478,-83.478 0,-46.032 37.446,-83.478 83.478,-83.478 z"
   inkscape:connector-curvature="0"
   style="fill:#787878;fill-opacity:1" />

	</g>

</g>
      <g
         id="g914"
         style="fill:#787878;fill-opacity:1">
	<g
   id="g912"
   style="fill:#787878;fill-opacity:1">
		<path
   id="path910"
   d="m 461.913,144.696 h -0.158 c 10.529,13.973 16.854,31.282 16.854,50.087 V 244.87 H 512 v -50.087 c 0,-27.619 -22.468,-50.087 -50.087,-50.087 z"
   inkscape:connector-curvature="0"
   style="fill:#787878;fill-opacity:1" />

	</g>

</g>
      <g
         id="g920"
         style="fill:#787878;fill-opacity:1">
	<g
   id="g918"
   style="fill:#787878;fill-opacity:1">
		<path
   id="path916"
   d="m 478.609,411.826 v 50.087 c 0,18.805 -6.323,36.114 -16.854,50.087 h 0.158 C 489.532,512 512,489.532 512,461.913 v -50.087 z"
   inkscape:connector-curvature="0"
   style="fill:#787878;fill-opacity:1" />

	</g>

</g>
      <g
         id="g926"
         style="fill:#787878;fill-opacity:1">
	<g
   id="g924"
   style="fill:#787878;fill-opacity:1">
		<path
   id="path922"
   d="m 273.369,4.892 c -6.521,-6.521 -17.087,-6.521 -23.609,0 l -14.674,14.674 91.74,91.738 h 52.956 z"
   inkscape:connector-curvature="0"
   style="fill:#787878;fill-opacity:1" />

	</g>

</g>
      <g
         id="g932"
         style="fill:#787878;fill-opacity:1">
	<g
   id="g930"
   style="fill:#787878;fill-opacity:1">
		<path
   id="path928"
   d="m 173.195,4.892 c -6.521,-6.522 -17.086,-6.522 -23.608,0 L 43.174,111.304 h 236.435 z"
   inkscape:connector-curvature="0"
   style="fill:#787878;fill-opacity:1" />

	</g>

</g>
      <g
         id="g934"
         style="fill:#787878;fill-opacity:1">
</g>
      <g
         id="g936"
         style="fill:#787878;fill-opacity:1">
</g>
      <g
         id="g938"
         style="fill:#787878;fill-opacity:1">
</g>
      <g
         id="g940"
         style="fill:#787878;fill-opacity:1">
</g>
      <g
         id="g942"
         style="fill:#787878;fill-opacity:1">
</g>
      <g
         id="g944"
         style="fill:#787878;fill-opacity:1">
</g>
      <g
         id="g946"
         style="fill:#787878;fill-opacity:1">
</g>
      <g
         id="g948"
         style="fill:#787878;fill-opacity:1">
</g>
      <g
         id="g950"
         style="fill:#787878;fill-opacity:1">
</g>
      <g
         id="g952"
         style="fill:#787878;fill-opacity:1">
</g>
      <g
         id="g954"
         style="fill:#787878;fill-opacity:1">
</g>
      <g
         id="g956"
         style="fill:#787878;fill-opacity:1">
</g>
      <g
         id="g958"
         style="fill:#787878;fill-opacity:1">
</g>
      <g
         id="g960"
         style="fill:#787878;fill-opacity:1">
</g>
      <g
         id="g962"
         style="fill:#787878;fill-opacity:1">
</g>
    </g>
  </g>
</svg>
